<?xml version="1.0" encoding="UTF-8" standalone="no"?><!DOCTYPE svg PUBLIC "-//W3C//DTD SVG 1.1//EN" "http://www.w3.org/Graphics/SVG/1.1/DTD/svg11.dtd"><svg width="100%" height="100%" viewBox="0 0 7014 7014" version="1.1" xmlns="http://www.w3.org/2000/svg" xmlns:xlink="http://www.w3.org/1999/xlink" xml:space="preserve" xmlns:serif="http://www.serif.com/" style="fill-rule:evenodd;clip-rule:evenodd;stroke-linejoin:round;stroke-miterlimit:2;"><g><circle cx="3506.94" cy="3506.94" r="3506.94" style="fill:#269dff;"/><path d="M1423.61,4440.36c0,243.592 202.88,459.87 446.471,459.87c121.626,0 216.28,-54.112 338.076,-135.195l1014.57,-744.005l-135.195,1217.45c-40.542,284.135 148.767,500.585 419.329,500.585c270.563,-0 460.043,-230.022 419.33,-514.155l-135.195,-1203.88l1014.57,744.005c121.798,81.083 216.45,135.195 324.676,135.195c243.421,0 460.043,-202.879 460.043,-446.299c-0,-216.451 -148.939,-365.389 -311.104,-432.901l-1190.48,-513.984l1190.48,-527.725c162.165,-67.683 311.104,-203.05 311.104,-419.33c-0,-243.506 -203.052,-446.505 -446.471,-446.505c-121.798,-0 -216.45,40.593 -338.248,135.35l-1014.57,744.056l135.195,-1217.53c40.713,-284.134 -148.767,-500.532 -419.33,-500.532c-270.562,0 -459.871,229.969 -419.329,514.018l135.195,1204.05l-1014.57,-744.056c-121.796,-94.757 -202.88,-135.35 -324.676,-135.35c-243.421,-0 -459.871,202.999 -459.871,446.505c0,202.88 148.767,351.647 311.104,419.33l1190.48,527.725l-1190.48,513.984c-148.765,67.512 -311.104,216.45 -311.104,419.33Z" style="fill:#fff;fill-rule:nonzero;stroke:#269dff;stroke-width:1.67px;"/></g></svg>